<svg xmlns="http://www.w3.org/2000/svg" viewBox="0 0 403.56574 236.8084"><defs><style>.a{fill:none;stroke:#000;stroke-width:3px;}.b{font-size:55px;}.b,.d{fill:#4b36cc;stroke:#fff;stroke-miterlimit:10;stroke-width:2px;font-family:CenturyGothic-Bold, Century Gothic;font-weight:700;}.c{fill:#c29d1f;}.d{font-size:50.02249px;}</style></defs><title>logo</title><path class="a" d="M639.62722,291.19319c2.94924-10.727,8.52945-21.58864,19.69168-25.90042,7.56763-2.92336,16.27544-.16156,22.29367,4.00155,8.38328,5.79947,10.56747,18.59906,7.05692,28.1297-3.82515,10.38433-17.07209,16.40429-15.7269,28.9087,1.21368,11.28359,2.98077,22.84849,2.15633,34.124-60.16028,31.091-123.18506,56.08035-184.72231,84.22684-5.9569,2.72443-10.19247,10.94623-6.45771,16.09629,5.17642,7.13808,16.03941,2.46636,23.80643,1.70132,121.806-11.99745,243.5956-25.49309,365.32118-38.74517,5.6448-.61455,11.79174-5.19229,9.5634-11.79932-2.66681-7.90479-12.73957-8.1774-19.58529-9.76317-61.76749-14.30755-123.9349-27.09183-185.72091-41.33375l-2.19936-.64079" transform="translate(-481.01232 -262.57929)"/><text class="b" transform="translate(118.98768 176.13262)">KINGS</text><path class="c" d="M745.52854,370.26521c.3707,2.19505-1.45269,4.4596-4.09212,4.90535L595.60548,399.79833c-2.63943.44574-5.10535-1.09443-5.47605-3.28948h0c-.39541-2.34135,1.45269-4.4596,4.09212-4.90535l145.83094-24.62778c2.63943-.44574,5.08065.94813,5.47605,3.28948Z" transform="translate(-481.01232 -262.57929)"/><path class="c" d="M574.98193,337.95977c.44483,2.634-1.659,5.247-4.62846,5.74847s-5.81469-1.27568-6.25953-3.90972,1.659-5.247,4.62846-5.74847S574.5371,335.32572,574.98193,337.95977Z" transform="translate(-481.01232 -262.57929)"/><path class="c" d="M618.74589,339.90062c.44483,2.634-1.659,5.247-4.62846,5.74847s-5.81469-1.27568-6.25953-3.90972,1.659-5.247,4.62846-5.74847S618.30105,337.26657,618.74589,339.90062Z" transform="translate(-481.01232 -262.57929)"/><path class="c" d="M752.32175,308.0108c.4504,2.667-1.62172,5.2407-4.62846,5.74847h0c-3.00654.50774-5.80911-1.24263-6.25951-3.90963l0-.00009c-.4504-2.667,1.62172-5.2407,4.62846-5.74847h0c3.00654-.50774,5.80911,1.24263,6.25951,3.90963Z" transform="translate(-481.01232 -262.57929)"/><path class="c" d="M700.73445,326.05447c.44483,2.634,3.29,4.41121,6.25953,3.90972s5.0733-3.11443,4.62846-5.74847-3.29-4.41121-6.25953-3.90972C702.22849,320.83534,700.28961,323.42043,700.73445,326.05447Z" transform="translate(-481.01232 -262.57929)"/><path class="c" d="M721.417,343.031l-11.479-10.70435a14.13356,14.13356,0,0,1-2.5653.88474,12.74669,12.74669,0,0,1-2.52394.1252l-8.92,18.51406-36.26706-36.92119a8.62273,8.62273,0,0,1-3.36541,1.17043,7.52635,7.52635,0,0,1-3.23327-.056l-21.9909,46.60926-14.31558-14.43958a9.47794,9.47794,0,0,1-2.09522.65488,10.57508,10.57508,0,0,1-3.04362.06249l-7.49226,13.90819-27.66-19.10943a12.20808,12.20808,0,0,1-3.638,2.571l19.43193,41.721,74.23519-12.53676,74.23519-12.53676,4.62872-45.93481a11.37215,11.37215,0,0,1-4.11559-1.26158Z" transform="translate(-481.01232 -262.57929)"/><path class="c" d="M660.54578,307.10417c.4504,2.667-1.62172,5.2407-4.62846,5.74847h0c-3.00654.50774-5.80911-1.24263-6.25951-3.90963l0-.00009c-.4504-2.667,1.62172-5.2407,4.62846-5.74847h0c3.00654-.50774,5.80911,1.24263,6.25951,3.90963Z" transform="translate(-481.01232 -262.57929)"/><text class="d" transform="translate(107.98768 220.46953)">CLOSET</text><text class="b" transform="translate(248.98768 169.13262)">’</text></svg>